# xmcd CD database file
#
# Track frame offsets:
#	150
#	26605
#	53250
#	81182
#	101937
#	146357
#	170110
#	185335
#	212625
#
# Disc length: 3443 seconds
#
# Revision: 0
# Processed by: cddbd v1.4PL0 Copyright (c) Steve Scherf et al.
# Submitted via: CDex 1.50beta9
#
DISCID=750d7109
DTITLE=Dick Morgan - Drive, Passion, Unpredictable
DYEAR=1900
DGENRE=Jazz
TTITLE0=The Boston Chicken I
TTITLE1=How Deep is the Ocean? - I Found my Love and it's You
TTITLE2=Honeysuckle Rose
TTITLE3=I Never Knew at All
TTITLE4=Yesterdays - Yesterday
TTITLE5=I Will Always Love You - If Ever I Should Lose Your Love
TTITLE6=Salt Peanuts
TTITLE7=Young and Foolish
TTITLE8=The Boston Chicken II
EXTD=
EXTT0=
EXTT1=
EXTT2=
EXTT3=
EXTT4=
EXTT5=
EXTT6=
EXTT7=
EXTT8=
PLAYORDER=
